# Blender v2.78 (sub 0) OBJ File: ''
# www.blender.org
mtllib woodendoorbottom-mx-.mtl
o woodendoorbottom-mx-
v 0.399999 0.500000 -0.500000
v 0.499999 0.500000 0.500000
v 0.399999 0.500000 0.500000
v 0.499999 0.500000 -0.499999
v 0.499999 -0.500000 0.500000
v 0.399999 -0.500000 0.500000
v 0.399999 -0.500000 -0.500000
v 0.499999 -0.500000 -0.500000
vt 0.948300 0.944200
vt 0.491500 0.944200
vt 0.491500 0.898500
vt 0.600400 0.024600
vt 0.600400 0.600400
vt 0.024600 0.600400
vt 0.034800 0.944200
vt 0.024600 0.024600
vt 0.670900 0.621700
vt 0.670900 0.671600
vt 0.171300 0.671600
vt 0.948300 0.898500
vt 0.034800 0.898500
vt 0.171300 0.621700
vt 0.621000 0.121800
vt 0.670900 0.121800
vt 0.670900 0.621400
vt 0.621000 0.621400
vn -0.000000 1.000000 0.000000
vn 1.000000 0.000000 0.000000
vn 0.000000 -0.000000 1.000000
vn -1.000000 0.000000 0.000000
vn 0.000000 0.000000 -1.000000
vn 0.000000 -1.000000 -0.000000
usemtl None
s 1
f 1/1/1 3/2/1 2/3/1
f 4/4/2 2/5/2 5/6/2
f 2/3/3 3/2/3 6/7/3
f 3/8/4 1/4/4 7/5/4
f 8/9/5 7/10/5 1/11/5
f 4/12/1 1/1/1 2/3/1
f 5/13/3 2/3/3 6/7/3
f 6/6/4 3/8/4 7/5/4
f 4/14/5 8/9/5 1/11/5
f 5/15/6 6/16/6 7/17/6
f 8/18/6 5/15/6 7/17/6
f 5/6/2 8/8/2 4/4/2
