# Blender v2.78 (sub 0) OBJ File: ''
# www.blender.org
mtllib woodendoorbottom-mz-.mtl
o woodendoorbottom-mz-
v -0.500000 0.500000 -0.399999
v 0.500000 0.500000 -0.399999
v 0.500000 0.500000 -0.499999
v -0.499999 0.500000 -0.499999
v 0.500000 -0.500000 -0.499999
v 0.500000 -0.500000 -0.399999
v -0.500000 -0.500000 -0.399999
v -0.500000 -0.500000 -0.499999
vt 0.9483 0.9442
vt 0.4915 0.9442
vt 0.4915 0.8985
vt 0.6004 0.0246
vt 0.6004 0.6004
vt 0.0246 0.6004
vt 0.0348 0.9442
vt 0.0246 0.0246
vt 0.6004 0.0246
vt 0.6004 0.6004
vt 0.6709 0.6217
vt 0.6709 0.6716
vt 0.1713 0.6716
vt 0.9483 0.8985
vt 0.0348 0.8985
vt 0.0246 0.6004
vt 0.1713 0.6217
vt 0.6210 0.1218
vt 0.6709 0.1218
vt 0.6709 0.6214
vt 0.6210 0.6214
vt 0.0246 0.0246
vn 0.0000 1.0000 0.0000
vn -0.0000 -0.0000 -1.0000
vn 1.0000 0.0000 0.0000
vn 0.0000 0.0000 1.0000
vn -1.0000 0.0000 -0.0000
vn 0.0000 -1.0000 0.0000
usemtl None
s 1
f 1/1/1 2/2/1 3/3/1
f 4/4/2 3/5/2 5/6/2
f 3/3/3 2/2/3 6/7/3
f 2/8/4 1/9/4 7/10/4
f 8/11/5 7/12/5 1/13/5
f 4/14/1 1/1/1 3/3/1
f 5/15/3 3/3/3 6/7/3
f 6/16/4 2/8/4 7/10/4
f 4/17/5 8/11/5 1/13/5
f 5/18/6 6/19/6 7/20/6
f 8/21/6 5/18/6 7/20/6
f 5/6/2 8/22/2 4/4/2
