# Blender v2.78 (sub 0) OBJ File: ''
# www.blender.org
mtllib woodgateopenx+.mtl
o woodgateopenx+
v 0.499999 0.500000 0.500000
v 0.499999 0.500000 0.440000
v 0.399999 0.500000 0.440000
v 0.399999 0.500000 0.499999
v 0.399999 -0.500000 0.440000
v 0.499999 -0.500000 0.440000
v 0.499999 -0.500000 0.500000
v 0.399999 -0.500000 0.500000
v 0.499999 0.500000 -0.440000
v 0.499999 0.500000 -0.500000
v 0.399999 0.500000 -0.500000
v 0.399999 0.500000 -0.440001
v 0.399999 -0.500000 -0.500000
v 0.499999 -0.500000 -0.500000
v 0.499999 -0.500000 -0.440000
v 0.399999 -0.500000 -0.440000
v 0.042034 -0.260000 0.403872
v 0.039420 -0.260000 0.433758
v 0.039420 0.460000 0.433758
v 0.042034 0.460000 0.403873
v 0.467783 0.460000 0.471235
v 0.467783 -0.260000 0.471235
v 0.470398 -0.260000 0.441349
v 0.470398 0.460000 0.441349
v 0.047587 0.460000 -0.367043
v 0.047587 -0.260000 -0.367043
v 0.042378 -0.260000 -0.396587
v 0.042378 0.460000 -0.396587
v 0.471054 0.460000 -0.441713
v 0.465845 0.460000 -0.471256
v 0.465845 -0.260000 -0.471256
v 0.471055 -0.260000 -0.441712
vt 0.5385 0.5349
vt 0.5740 0.5349
vt 0.5740 0.5930
vt 0.3254 0.4186
vt 0.3609 0.4186
vt 0.3609 1.0000
vt 0.7633 0.0000
vt 0.8225 0.0000
vt 0.8225 0.5814
vt 0.2544 0.4186
vt 0.2899 0.4186
vt 0.2899 1.0000
vt 0.9408 0.5814
vt 0.8817 0.5814
vt 0.8817 0.0000
vt 0.5385 0.5930
vt 0.7633 0.5814
vt 0.2544 1.0000
vt 0.9408 0.0000
vt 0.5740 0.4767
vt 0.5740 0.4186
vt 0.6095 0.4186
vt 0.6095 0.4767
vt 0.3254 1.0000
vt 0.5740 0.4767
vt 0.5385 0.4767
vt 0.5385 0.4186
vt 0.3609 0.4186
vt 0.3964 0.4186
vt 0.3964 1.0000
vt 0.8225 0.0000
vt 0.8817 0.0000
vt 0.8817 0.5814
vt 0.3254 1.0000
vt 0.2899 1.0000
vt 0.2899 0.4186
vt 1.0000 0.5814
vt 0.9408 0.5814
vt 0.9408 0.0000
vt 0.5740 0.4186
vt 0.8225 0.5814
vt 0.3254 0.4186
vt 1.0000 0.0000
vt 0.5385 0.5349
vt 0.5385 0.4767
vt 0.5740 0.4767
vt 0.5740 0.5349
vt 0.3609 1.0000
vt 0.4497 0.8372
vt 0.4320 0.8372
vt 0.4320 0.4186
vt 0.5030 0.4186
vt 0.5207 0.4186
vt 0.5207 0.6686
vt 0.2544 0.4186
vt 0.2544 0.0000
vt 0.5089 0.0000
vt 0.4852 0.4186
vt 0.5030 0.4186
vt 0.5030 0.6686
vt 0.0000 0.8372
vt 0.0000 0.4186
vt 0.2544 0.4186
vt 0.4497 0.4186
vt 0.5089 0.4186
vt 0.4852 0.6686
vt 0.2544 0.8372
vt 0.4142 0.8372
vt 0.4142 0.4186
vt 0.4320 0.4186
vt 0.4320 0.8372
vt 0.5030 0.6686
vt 0.5385 0.6686
vt 0.5207 0.6686
vt 0.5207 0.4186
vt 0.4142 0.8372
vt 0.3964 0.8372
vt 0.4142 0.4186
vt 0.3964 0.4186
vt 0.7633 0.4186
vt 0.5089 0.4186
vt 0.7633 0.0000
vt 0.4675 0.6686
vt 0.4675 0.4186
vt 0.4852 0.6686
vt 0.2544 0.4186
vt 0.0000 0.4186
vt 0.2544 0.0000
vt 0.4675 0.4186
vt 0.4675 0.8372
vt 0.4497 0.4186
vt 0.5089 0.0000
vt 0.4852 0.4186
vt 0.0000 0.0000
vt 0.5385 0.4186
vt 0.4497 0.8372
vn -0.0000 1.0000 0.0000
vn -1.0000 -0.0000 0.0000
vn 0.0000 0.0000 -1.0000
vn 1.0000 -0.0000 0.0000
vn -0.0000 -0.0000 1.0000
vn 0.0000 -1.0000 0.0000
vn -0.9962 0.0000 -0.0872
vn -0.0872 -0.0000 0.9962
vn 0.0872 0.0000 -0.9962
vn 0.9962 0.0000 0.0872
vn -0.9848 0.0000 0.1736
vn 0.1737 0.0000 0.9848
vn 0.1736 0.0000 0.9848
vn -0.1736 0.0000 -0.9848
vn 0.9848 0.0000 -0.1736
usemtl None
s 1
f 1/1/1 2/2/1 3/3/1
f 4/4/2 3/5/2 5/6/2
f 3/7/3 2/8/3 6/9/3
f 2/10/4 1/11/4 7/12/4
f 8/13/5 7/14/5 1/15/5
f 4/16/1 1/1/1 3/3/1
f 5/17/3 3/7/3 6/9/3
f 6/18/4 2/10/4 7/12/4
f 4/19/5 8/13/5 1/15/5
f 5/20/6 6/21/6 7/22/6
f 8/23/6 5/20/6 7/22/6
f 5/6/2 8/24/2 4/4/2
f 9/25/1 10/26/1 11/27/1
f 12/28/2 11/29/2 13/30/2
f 11/31/3 10/32/3 14/33/3
f 10/34/4 9/35/4 15/36/4
f 16/37/5 15/38/5 9/39/5
f 12/40/1 9/25/1 11/27/1
f 13/41/3 11/31/3 14/33/3
f 14/42/4 10/34/4 15/36/4
f 12/43/5 16/37/5 9/39/5
f 13/44/6 14/45/6 15/46/6
f 16/47/6 13/44/6 15/46/6
f 13/30/2 16/48/2 12/28/2
f 17/49/7 18/50/7 19/51/7
f 20/52/1 19/53/1 21/54/1
f 19/55/8 18/56/8 22/57/8
f 18/58/6 17/59/6 23/60/6
f 24/61/9 23/62/9 17/63/9
f 20/64/7 17/49/7 19/51/7
f 21/65/8 19/55/8 22/57/8
f 22/66/6 18/58/6 23/60/6
f 20/67/9 24/61/9 17/63/9
f 21/68/10 22/69/10 23/70/10
f 24/71/10 21/68/10 23/70/10
f 21/54/1 24/72/1 20/52/1
f 28/73/1 25/74/1 29/75/1
f 25/76/11 28/77/11 26/78/11
f 28/77/11 27/79/11 26/78/11
f 29/80/12 25/81/13 32/82/13
f 27/83/6 31/84/6 26/85/6
f 28/86/14 30/87/14 27/88/14
f 29/89/15 32/90/15 30/91/15
f 25/81/13 26/92/13 32/82/13
f 31/84/6 32/93/6 26/85/6
f 30/87/14 31/94/14 27/88/14
f 29/75/1 30/95/1 28/73/1
f 32/90/15 31/96/15 30/91/15
