# Blender v2.78 (sub 0) OBJ File: ''
# www.blender.org
mtllib woodgateclosedz+.mtl
o woodgateclosedz+
v -0.500000 0.500000 0.499999
v -0.440000 0.500000 0.499999
v -0.440000 0.500000 0.399999
v -0.499999 0.500000 0.399999
v -0.440000 -0.500000 0.399999
v -0.440000 -0.500000 0.499999
v -0.500000 -0.500000 0.499999
v -0.500000 -0.500000 0.399999
v 0.440000 0.500000 0.499999
v 0.500000 0.500000 0.499999
v 0.500000 0.500000 0.399999
v 0.440001 0.500000 0.399999
v 0.500000 -0.500000 0.399999
v 0.500000 -0.500000 0.499999
v 0.440000 -0.500000 0.499999
v 0.440000 -0.500000 0.399999
v -0.010000 -0.260000 0.479999
v -0.010000 -0.260000 0.449999
v -0.010000 0.460000 0.449999
v -0.010000 0.460000 0.479998
v -0.440000 0.460000 0.449999
v -0.440000 -0.260000 0.449999
v -0.440000 -0.260000 0.479999
v -0.440000 0.460000 0.479999
v 0.010000 0.460000 0.479999
v 0.010000 -0.260000 0.479999
v 0.010000 -0.260000 0.449999
v 0.010000 0.460000 0.449999
v 0.440000 0.460000 0.479998
v 0.440000 0.460000 0.449999
v 0.440000 -0.260000 0.449999
v 0.440000 -0.260000 0.479999
vt 0.5385 0.5349
vt 0.5740 0.5349
vt 0.5740 0.5930
vt 0.3254 0.4186
vt 0.3609 0.4186
vt 0.3609 1.0000
vt 0.7633 0.0000
vt 0.8225 0.0000
vt 0.8225 0.5814
vt 0.2544 0.4186
vt 0.2899 0.4186
vt 0.2899 1.0000
vt 0.9408 0.5814
vt 0.8817 0.5814
vt 0.8817 0.0000
vt 0.5385 0.5930
vt 0.7633 0.5814
vt 0.2544 1.0000
vt 0.9408 0.0000
vt 0.5740 0.4767
vt 0.5740 0.4186
vt 0.6095 0.4186
vt 0.6095 0.4767
vt 0.3254 1.0000
vt 0.5740 0.4767
vt 0.5385 0.4767
vt 0.5385 0.4186
vt 0.3609 0.4186
vt 0.3964 0.4186
vt 0.3964 1.0000
vt 0.8225 0.0000
vt 0.8817 0.0000
vt 0.8817 0.5814
vt 0.3254 1.0000
vt 0.2899 1.0000
vt 0.2899 0.4186
vt 1.0000 0.5814
vt 0.9408 0.5814
vt 0.9408 0.0000
vt 0.5740 0.4186
vt 0.8225 0.5814
vt 0.3254 0.4186
vt 1.0000 0.0000
vt 0.5385 0.5349
vt 0.5385 0.4767
vt 0.5740 0.4767
vt 0.5740 0.5349
vt 0.3609 1.0000
vt 0.4497 0.8372
vt 0.4320 0.8372
vt 0.4320 0.4186
vt 0.5030 0.4186
vt 0.5207 0.4186
vt 0.5207 0.6686
vt 0.2544 0.4186
vt 0.2544 0.0000
vt 0.5089 0.0000
vt 0.4852 0.4186
vt 0.5030 0.4186
vt 0.5030 0.6686
vt 0.0000 0.8372
vt 0.0000 0.4186
vt 0.2544 0.4186
vt 0.4497 0.4186
vt 0.5089 0.4186
vt 0.4852 0.6686
vt 0.2544 0.8372
vt 0.4142 0.8372
vt 0.4142 0.4186
vt 0.4320 0.4186
vt 0.4320 0.8372
vt 0.5030 0.6686
vt 0.5385 0.6686
vt 0.5207 0.6686
vt 0.5207 0.4186
vt 0.4142 0.8372
vt 0.3964 0.8372
vt 0.4142 0.4186
vt 0.3964 0.4186
vt 0.7633 0.4186
vt 0.5089 0.4186
vt 0.7633 0.0000
vt 0.4675 0.6686
vt 0.4675 0.4186
vt 0.4852 0.6686
vt 0.2544 0.4186
vt 0.0000 0.4186
vt 0.2544 0.0000
vt 0.4675 0.4186
vt 0.4675 0.8372
vt 0.4497 0.4186
vt 0.5089 0.0000
vt 0.4852 0.4186
vt 0.0000 0.0000
vt 0.5385 0.4186
vt 0.4497 0.8372
vn -0.0000 1.0000 -0.0000
vn 0.0000 0.0000 -1.0000
vn 1.0000 0.0000 -0.0000
vn 0.0000 0.0000 1.0000
vn -1.0000 -0.0000 -0.0000
vn 0.0000 -1.0000 0.0000
usemtl None
s 1
f 1/1/1 2/2/1 3/3/1
f 4/4/2 3/5/2 5/6/2
f 3/7/3 2/8/3 6/9/3
f 2/10/4 1/11/4 7/12/4
f 8/13/5 7/14/5 1/15/5
f 4/16/1 1/1/1 3/3/1
f 5/17/3 3/7/3 6/9/3
f 6/18/4 2/10/4 7/12/4
f 4/19/5 8/13/5 1/15/5
f 5/20/6 6/21/6 7/22/6
f 8/23/6 5/20/6 7/22/6
f 5/6/2 8/24/2 4/4/2
f 9/25/1 10/26/1 11/27/1
f 12/28/2 11/29/2 13/30/2
f 11/31/3 10/32/3 14/33/3
f 10/34/4 9/35/4 15/36/4
f 16/37/5 15/38/5 9/39/5
f 12/40/1 9/25/1 11/27/1
f 13/41/3 11/31/3 14/33/3
f 14/42/4 10/34/4 15/36/4
f 12/43/5 16/37/5 9/39/5
f 13/44/6 14/45/6 15/46/6
f 16/47/6 13/44/6 15/46/6
f 13/30/2 16/48/2 12/28/2
f 17/49/3 18/50/3 19/51/3
f 20/52/1 19/53/1 21/54/1
f 19/55/2 18/56/2 22/57/2
f 18/58/6 17/59/6 23/60/6
f 24/61/4 23/62/4 17/63/4
f 20/64/3 17/49/3 19/51/3
f 21/65/2 19/55/2 22/57/2
f 22/66/6 18/58/6 23/60/6
f 20/67/4 24/61/4 17/63/4
f 21/68/5 22/69/5 23/70/5
f 24/71/5 21/68/5 23/70/5
f 21/54/1 24/72/1 20/52/1
f 28/73/1 25/74/1 29/75/1
f 25/76/5 28/77/5 26/78/5
f 28/77/5 27/79/5 26/78/5
f 29/80/4 25/81/4 32/82/4
f 27/83/6 31/84/6 26/85/6
f 28/86/2 30/87/2 27/88/2
f 29/89/3 32/90/3 30/91/3
f 25/81/4 26/92/4 32/82/4
f 31/84/6 32/93/6 26/85/6
f 30/87/2 31/94/2 27/88/2
f 29/75/1 30/95/1 28/73/1
f 32/90/3 31/96/3 30/91/3
